<svg width="131" height="129" viewBox="0 0 131 129" fill="none" xmlns="http://www.w3.org/2000/svg">
<path d="M130.25 36C130.25 45.5469 123.308 54.3457 111.743 60.8009C100.202 67.2424 84.2077 71.25 66.5 71.25C48.7923 71.25 32.798 67.2424 21.2571 60.8009C9.69157 54.3457 2.75 45.5469 2.75 36C2.75 26.4531 9.69157 17.6543 21.2571 11.1991C32.798 4.75763 48.7923 0.75 66.5 0.75C84.2077 0.75 100.202 4.75763 111.743 11.1991C123.308 17.6543 130.25 26.4531 130.25 36Z" stroke="#CCF2DB" stroke-width="1.5"/>
<path opacity="0.5" d="M128.849 79.5193C128.929 80.1753 128.978 80.836 128.994 81.5011L128.244 81.5194C128.248 81.6793 128.25 81.8395 128.25 82C128.25 82.1605 128.248 82.3207 128.244 82.4806L128.994 82.4988C128.978 83.164 128.929 83.8247 128.849 84.4807L128.105 84.3899C128.066 84.707 128.02 85.023 127.966 85.3378L128.705 85.4643C128.594 86.1167 128.451 86.764 128.278 87.4058L127.554 87.2104C127.471 87.518 127.38 87.8244 127.283 88.1296L127.997 88.3577C127.797 88.985 127.568 89.6066 127.31 90.2222L126.618 89.9326C126.495 90.2281 126.364 90.5222 126.227 90.8151L126.906 91.1333C126.628 91.7277 126.323 92.316 125.992 92.898L125.34 92.5274C125.182 92.805 125.018 93.0813 124.848 93.3562L125.486 93.7507C125.141 94.3079 124.773 94.8589 124.381 95.4034L123.772 94.9655C123.584 95.227 123.391 95.4871 123.192 95.7457L123.786 96.2033C123.386 96.7222 122.965 97.2348 122.524 97.7408L121.959 97.2477C121.748 97.4893 121.532 97.7294 121.312 97.9681L121.863 98.477C121.419 98.9577 120.956 99.4321 120.474 99.9L119.952 99.3622C119.719 99.5886 119.481 99.8136 119.239 100.037L119.748 100.588C119.268 101.032 118.771 101.469 118.258 101.9L117.775 101.326C117.528 101.534 117.277 101.74 117.022 101.945L117.491 102.53C116.98 102.94 116.453 103.345 115.912 103.742L115.468 103.138C115.207 103.33 114.943 103.52 114.676 103.708L115.108 104.321C114.573 104.699 114.024 105.071 113.462 105.436L113.053 104.807C112.78 104.985 112.503 105.161 112.223 105.336L112.621 105.972C112.065 106.319 111.498 106.66 110.919 106.995L110.543 106.346C110.26 106.51 109.973 106.673 109.684 106.834L110.049 107.489C109.476 107.808 108.893 108.121 108.3 108.427L107.955 107.761C107.666 107.91 107.374 108.059 107.079 108.205L107.413 108.877C106.824 109.17 106.225 109.457 105.617 109.738L105.302 109.058C105.007 109.194 104.71 109.329 104.411 109.462L104.717 110.147C104.115 110.415 103.504 110.677 102.885 110.934L102.599 110.241C102.298 110.365 101.996 110.488 101.691 110.61L101.969 111.306C101.357 111.55 100.738 111.789 100.11 112.021L99.8496 111.318C99.5438 111.431 99.2361 111.543 98.9265 111.653L99.1784 112.359C98.558 112.581 97.9304 112.796 97.2958 113.006L97.0606 112.293C96.7503 112.396 96.4382 112.497 96.1244 112.597L96.3514 113.311C95.7236 113.511 95.0892 113.705 94.4485 113.892L94.2375 113.173C93.9234 113.265 93.6077 113.355 93.2905 113.445L93.4936 114.167C92.8594 114.345 92.2192 114.518 91.5732 114.685L91.3855 113.959C91.0682 114.041 90.7495 114.121 90.4294 114.2L90.6096 114.928C89.9698 115.087 89.3246 115.239 88.6741 115.386L88.5089 114.655C88.1891 114.727 87.8679 114.798 87.5455 114.867L87.7034 115.6C87.0588 115.739 86.4093 115.872 85.7549 116L85.6115 115.263C85.2896 115.326 84.9665 115.387 84.6423 115.447L84.7785 116.185C84.1298 116.305 83.4765 116.419 82.8189 116.527L82.6968 115.787C82.3732 115.841 82.0485 115.893 81.7228 115.943L81.838 116.684C81.1857 116.786 80.5293 116.882 79.8689 116.972L79.7675 116.229C79.4427 116.273 79.1168 116.316 78.79 116.357L78.8846 117.101C78.2293 117.185 77.5703 117.262 76.9076 117.335L76.8265 116.589C76.5007 116.624 76.174 116.658 75.8464 116.691L75.9208 117.437C75.263 117.503 74.6018 117.563 73.9372 117.617L73.8761 116.87C73.5496 116.897 73.2224 116.922 72.8943 116.946L72.9489 117.694C72.2891 117.742 71.6261 117.785 70.9601 117.822L70.9185 117.073C70.5917 117.091 70.2642 117.108 69.9359 117.123L69.9711 117.872C69.3103 117.903 68.6466 117.929 67.9803 117.948L67.9581 117.199C67.6305 117.209 67.3022 117.217 66.9733 117.224L66.9892 117.974C66.3285 117.988 65.6653 117.996 64.9997 117.999L64.9965 117.249C64.8311 117.25 64.6656 117.25 64.5 117.25C64.3344 117.25 64.1689 117.25 64.0035 117.249L64.0004 117.999C63.3347 117.996 62.6715 117.988 62.0108 117.974L62.0267 117.224C61.6978 117.217 61.3696 117.209 61.042 117.199L61.0197 117.948C60.3534 117.929 59.6898 117.903 59.029 117.872L59.0641 117.123C58.7358 117.108 58.4083 117.091 58.0815 117.073L58.0399 117.822C57.3739 117.785 56.7109 117.742 56.0511 117.694L56.1057 116.946C55.7777 116.922 55.4504 116.897 55.124 116.87L55.0628 117.617C54.3982 117.563 53.737 117.503 53.0792 117.437L53.1536 116.691C52.826 116.658 52.4993 116.624 52.1735 116.589L52.0925 117.335C51.4297 117.262 50.7707 117.185 50.1154 117.101L50.21 116.357C49.8832 116.316 49.5573 116.273 49.2325 116.229L49.1311 116.972C48.4707 116.882 47.8143 116.786 47.162 116.684L47.2772 115.943C46.9515 115.893 46.6268 115.841 46.3032 115.787L46.1811 116.527C45.5235 116.419 44.8702 116.305 44.2215 116.185L44.3577 115.447C44.0335 115.387 43.7104 115.326 43.3885 115.263L43.2451 116C42.5908 115.872 41.9412 115.739 41.2966 115.6L41.4545 114.867C41.1321 114.798 40.8109 114.727 40.4911 114.655L40.3259 115.386C39.6754 115.239 39.0302 115.087 38.3905 114.928L38.5706 114.2C38.2505 114.121 37.9318 114.041 37.6145 113.959L37.4268 114.685C36.7808 114.518 36.1406 114.345 35.5064 114.167L35.7095 113.445C35.3923 113.355 35.0766 113.265 34.7625 113.173L34.5515 113.892C33.9108 113.705 33.2764 113.511 32.6486 113.311L32.8756 112.597C32.5618 112.497 32.2497 112.396 31.9394 112.293L31.7042 113.006C31.0696 112.796 30.442 112.581 29.8216 112.359L30.0735 111.653C29.7639 111.543 29.4562 111.431 29.1504 111.318L28.8899 112.021C28.2625 111.789 27.6428 111.55 27.031 111.306L27.3089 110.61C27.0044 110.488 26.7019 110.365 26.4015 110.241L26.1146 110.934C25.4956 110.677 24.8851 110.415 24.2835 110.147L24.5888 109.462C24.2896 109.329 23.9927 109.194 23.698 109.058L23.3833 109.738C22.775 109.457 22.1762 109.17 21.587 108.877L21.9212 108.205C21.6265 108.059 21.3343 107.91 21.0446 107.761L20.7004 108.427C20.1069 108.121 19.5239 107.808 18.9515 107.489L19.3162 106.834C19.0268 106.673 18.7403 106.51 18.4565 106.346L18.081 106.995C17.5021 106.66 16.9346 106.319 16.3791 105.972L16.7765 105.336C16.4969 105.161 16.2204 104.985 15.947 104.807L15.5382 105.436C14.9763 105.071 14.4273 104.699 13.8916 104.321L14.3239 103.708C14.0565 103.52 13.7926 103.33 13.5322 103.138L13.0878 103.742C12.5469 103.345 12.0205 102.94 11.509 102.53L11.9784 101.945C11.7232 101.74 11.4719 101.534 11.2245 101.326L10.7422 101.9C10.229 101.469 9.73199 101.032 9.25167 100.588L9.76064 100.037C9.5188 99.8136 9.28137 99.5886 9.04841 99.3622L8.52565 99.9C8.04439 99.4322 7.58142 98.9577 7.13727 98.477L7.68814 97.9681C7.46764 97.7294 7.25199 97.4893 7.04124 97.2477L6.4761 97.7408C6.03466 97.2348 5.61384 96.7222 5.21426 96.2033L5.80848 95.7457C5.60931 95.4871 5.41566 95.227 5.22758 94.9655L4.61869 95.4034C4.22715 94.8589 3.85874 94.3079 3.51416 93.7507L4.15205 93.3562C3.98205 93.0813 3.81811 92.8051 3.66031 92.5274L3.00828 92.898C2.67748 92.3161 2.37246 91.7277 2.09399 91.1333L2.77314 90.8151C2.63595 90.5223 2.50548 90.2281 2.38181 89.9327L1.68998 90.2223C1.4323 89.6067 1.20292 88.985 1.00265 88.3577L1.71713 88.1296C1.6197 87.8244 1.52945 87.518 1.44646 87.2104L0.722356 87.4058C0.549201 86.764 0.406399 86.1167 0.294795 85.4643L1.03406 85.3378C0.980199 85.023 0.93389 84.707 0.895223 84.3899L0.150738 84.4807C0.0707539 83.8247 0.0222512 83.164 0.00606615 82.4989L0.755844 82.4806C0.751952 82.3207 0.75 82.1605 0.75 82C0.75 81.8395 0.751952 81.6793 0.755844 81.5194L0.00606555 81.5012C0.0222498 80.836 0.0707517 80.1753 0.150735 79.5193L0.89522 79.6101C0.933887 79.293 0.980195 78.977 1.03405 78.6622L0.294791 78.5357C0.406395 77.8833 0.549196 77.236 0.722351 76.5942L1.44646 76.7896C1.52945 76.482 1.6197 76.1756 1.71712 75.8704L1.00265 75.6423C1.20292 75.015 1.43229 74.3934 1.68997 73.7778L2.38181 74.0674C2.50547 73.7719 2.63594 73.4778 2.77314 73.1849L2.09398 72.8667C2.37246 72.2723 2.67747 71.684 3.00827 71.102L3.6603 71.4726C3.8181 71.195 3.98204 70.9187 4.15204 70.6438L3.51416 70.2493C3.85874 69.6921 4.22714 69.1411 4.61869 68.5966L5.22757 69.0345C5.41565 68.773 5.60931 68.5129 5.80848 68.2543L5.21425 67.7967C5.61384 67.2778 6.03466 66.7652 6.47609 66.2592L7.04124 66.7523C7.25198 66.5107 7.46763 66.2706 7.68813 66.0319L7.13726 65.523C7.58141 65.0423 8.04438 64.5679 8.52564 64.1L9.0484 64.6378C9.28137 64.4114 9.51879 64.1864 9.76063 63.963L9.25166 63.4121C9.73198 62.9683 10.229 62.5308 10.7422 62.0998L11.2245 62.6741C11.4719 62.4663 11.7232 62.26 11.9784 62.0552L11.509 61.4703C12.0205 61.0598 12.5469 60.6555 13.0878 60.2577L13.5322 60.8618C13.7926 60.6703 14.0565 60.4802 14.3239 60.2917L13.8916 59.6788C14.4273 59.3009 14.9763 58.9292 15.5382 58.5639L15.947 59.1926C16.2204 59.0149 16.4969 58.8386 16.7765 58.6639L16.3791 58.0279C16.9346 57.6807 17.5021 57.3396 18.081 57.0047L18.4565 57.6539C18.7403 57.4898 19.0268 57.3272 19.3162 57.1661L18.9514 56.5108C19.5239 56.1922 20.1069 55.8795 20.7004 55.5729L21.0446 56.2393C21.3343 56.0896 21.6265 55.9415 21.9212 55.7948L21.587 55.1233C22.1762 54.8301 22.775 54.5428 23.3833 54.2616L23.698 54.9424C23.9927 54.8061 24.2896 54.6714 24.5888 54.538L24.2835 53.853C24.8851 53.5848 25.4956 53.3225 26.1146 53.0663L26.4015 53.7593C26.7019 53.6349 27.0044 53.512 27.3089 53.3904L27.031 52.6939C27.6428 52.4498 28.2625 52.2115 28.8899 51.9792L29.1504 52.6825C29.4562 52.5693 29.7639 52.4574 30.0735 52.347L29.8216 51.6406C30.442 51.4194 31.0696 51.2039 31.7042 50.9944L31.9394 51.7066C32.2497 51.6041 32.5618 51.503 32.8756 51.4034L32.6486 50.6885C33.2764 50.4892 33.9108 50.2955 34.5515 50.1077L34.7625 50.8274C35.0766 50.7353 35.3923 50.6446 35.7095 50.5554L35.5064 49.8334C36.1406 49.655 36.7808 49.4822 37.4268 49.3152L37.6145 50.0414C37.9318 49.9594 38.2505 49.8788 38.5706 49.7996L38.3905 49.0715C39.0302 48.9133 39.6754 48.7607 40.3259 48.6138L40.4911 49.3454C40.8109 49.2732 41.1321 49.2024 41.4545 49.1329L41.2966 48.3997C41.9412 48.261 42.5907 48.1279 43.2451 48.0004L43.3885 48.7366C43.7104 48.6739 44.0335 48.6126 44.3577 48.5527L44.2215 47.8152C44.8702 47.6954 45.5235 47.5812 46.1811 47.4726L46.3032 48.2126C46.6268 48.1592 46.9515 48.1072 47.2772 48.0566L47.162 47.3155C47.8143 47.2142 48.4707 47.1184 49.1311 47.0283L49.2325 47.7714C49.5573 47.7271 49.8832 47.6841 50.21 47.6426L50.1154 46.8986C50.7707 46.8153 51.4297 46.7375 52.0924 46.6655L52.1735 47.4111C52.4993 47.3756 52.826 47.3416 53.1536 47.3089L53.0792 46.5626C53.737 46.497 54.3982 46.437 55.0628 46.3826L55.1239 47.1301C55.4504 47.1034 55.7776 47.078 56.1057 47.0541L56.0511 46.3061C56.7109 46.2579 57.3739 46.2153 58.0399 46.1783L58.0814 46.9272C58.4083 46.909 58.7358 46.8923 59.0641 46.8769L59.0289 46.1277C59.6897 46.0967 60.3534 46.0713 61.0197 46.0515L61.0419 46.8012C61.3695 46.7915 61.6978 46.7831 62.0267 46.7761L62.0108 46.0263C62.6715 46.0123 63.3347 46.0039 64.0003 46.0011L64.0035 46.7511C64.1689 46.7504 64.3344 46.75 64.5 46.75C64.6656 46.75 64.8311 46.7504 64.9965 46.7511L64.9996 46.0011C65.6653 46.0039 66.3285 46.0123 66.9892 46.0263L66.9733 46.7761C67.3022 46.7831 67.6304 46.7915 67.958 46.8012L67.9803 46.0515C68.6466 46.0713 69.3102 46.0967 69.971 46.1277L69.9359 46.8769C70.2642 46.8922 70.5917 46.909 70.9185 46.9272L70.9601 46.1783C71.6261 46.2153 72.2891 46.2579 72.9489 46.3061L72.8943 47.0541C73.2223 47.078 73.5496 47.1034 73.876 47.1301L73.9372 46.3826C74.6018 46.437 75.263 46.497 75.9208 46.5626L75.8464 47.3089C76.174 47.3416 76.5006 47.3756 76.8264 47.4111L76.9075 46.6655C77.5702 46.7375 78.2293 46.8153 78.8846 46.8986L78.79 47.6426C79.1168 47.6841 79.4426 47.7271 79.7675 47.7714L79.8689 47.0283C80.5293 47.1184 81.1857 47.2142 81.838 47.3155L81.7228 48.0566C82.0485 48.1072 82.3732 48.1592 82.6968 48.2126L82.8189 47.4726C83.4765 47.5812 84.1298 47.6954 84.7785 47.8152L84.6423 48.5527C84.9665 48.6126 85.2896 48.6739 85.6115 48.7366L85.7549 48.0004C86.4092 48.1278 87.0588 48.261 87.7033 48.3997L87.5455 49.1329C87.8679 49.2023 88.189 49.2732 88.5089 49.3454L88.6741 48.6138C89.3246 48.7607 89.9698 48.9133 90.6095 49.0715L90.4294 49.7996C90.7495 49.8788 91.0682 49.9594 91.3855 50.0414L91.5732 49.3152C92.2191 49.4822 92.8594 49.655 93.4936 49.8334L93.2904 50.5554C93.6077 50.6446 93.9234 50.7353 94.2375 50.8274L94.4485 50.1077C95.0892 50.2955 95.7236 50.4892 96.3514 50.6885L96.1244 51.4033C96.4382 51.503 96.7502 51.6041 97.0606 51.7065L97.2958 50.9944C97.9304 51.2039 98.558 51.4194 99.1784 51.6406L98.9265 52.347C99.2361 52.4574 99.5438 52.5692 99.8496 52.6825L100.11 51.9791C100.737 52.2115 101.357 52.4497 101.969 52.6938L101.691 53.3904C101.996 53.5119 102.298 53.6349 102.599 53.7593L102.885 53.0663C103.504 53.3225 104.115 53.5848 104.717 53.853L104.411 54.538C104.71 54.6714 105.007 54.8061 105.302 54.9424L105.617 54.2616C106.225 54.5428 106.824 54.8301 107.413 55.1233L107.079 55.7947C107.373 55.9414 107.666 56.0896 107.955 56.2393L108.3 55.5729C108.893 55.8795 109.476 56.1921 110.049 56.5108L109.684 57.1661C109.973 57.3272 110.26 57.4898 110.543 57.6539L110.919 57.0047C111.498 57.3396 112.065 57.6807 112.621 58.0279L112.223 58.6639C112.503 58.8386 112.78 59.0149 113.053 59.1926L113.462 58.5638C114.024 58.9292 114.573 59.3009 115.108 59.6788L114.676 60.2917C114.943 60.4802 115.207 60.6703 115.468 60.8618L115.912 60.2576C116.453 60.6555 116.979 61.0598 117.491 61.4703L117.022 62.0552C117.277 62.26 117.528 62.4663 117.775 62.6741L118.258 62.0998C118.771 62.5308 119.268 62.9683 119.748 63.4121L119.239 63.963C119.481 64.1864 119.719 64.4114 119.952 64.6378L120.474 64.1C120.956 64.5678 121.419 65.0423 121.863 65.523L121.312 66.0319C121.532 66.2706 121.748 66.5107 121.959 66.7523L122.524 66.2592C122.965 66.7652 123.386 67.2778 123.786 67.7967L123.192 68.2543C123.391 68.5129 123.584 68.773 123.772 69.0345L124.381 68.5966C124.773 69.1411 125.141 69.6921 125.486 70.2493L124.848 70.6438C125.018 70.9187 125.182 71.1949 125.34 71.4726L125.992 71.102C126.323 71.6839 126.628 72.2723 126.906 72.8667L126.227 73.1849C126.364 73.4777 126.495 73.7719 126.618 74.0673L127.31 73.7777C127.568 74.3933 127.797 75.015 127.997 75.6423L127.283 75.8704C127.38 76.1756 127.471 76.482 127.554 76.7896L128.278 76.5942C128.451 77.236 128.594 77.8833 128.705 78.5357L127.966 78.6622C128.02 78.977 128.066 79.293 128.105 79.6101L128.849 79.5193Z" stroke="#CCF2DB" stroke-width="1.5" stroke-dasharray="1 2"/>
<path opacity="0.5" d="M128.849 68.5193C128.929 69.1753 128.978 69.836 128.994 70.5011L128.244 70.5194C128.248 70.6793 128.25 70.8395 128.25 71C128.25 71.1605 128.248 71.3207 128.244 71.4806L128.994 71.4988C128.978 72.164 128.929 72.8247 128.849 73.4807L128.105 73.3899C128.066 73.707 128.02 74.023 127.966 74.3378L128.705 74.4643C128.594 75.1167 128.451 75.764 128.278 76.4058L127.554 76.2104C127.471 76.518 127.38 76.8244 127.283 77.1296L127.997 77.3577C127.797 77.985 127.568 78.6066 127.31 79.2222L126.618 78.9326C126.495 79.2281 126.364 79.5222 126.227 79.8151L126.906 80.1333C126.628 80.7277 126.323 81.316 125.992 81.898L125.34 81.5274C125.182 81.805 125.018 82.0813 124.848 82.3562L125.486 82.7507C125.141 83.3079 124.773 83.8589 124.381 84.4034L123.772 83.9655C123.584 84.227 123.391 84.4871 123.192 84.7457L123.786 85.2033C123.386 85.7222 122.965 86.2348 122.524 86.7408L121.959 86.2477C121.748 86.4893 121.532 86.7294 121.312 86.9681L121.863 87.477C121.419 87.9577 120.956 88.4321 120.474 88.9L119.952 88.3622C119.719 88.5886 119.481 88.8136 119.239 89.037L119.748 89.5879C119.268 90.0317 118.771 90.4692 118.258 90.9002L117.775 90.3259C117.528 90.5337 117.277 90.74 117.022 90.9448L117.491 91.5297C116.98 91.9402 116.453 92.3445 115.912 92.7423L115.468 92.1382C115.207 92.3297 114.943 92.5198 114.676 92.7083L115.108 93.3212C114.573 93.6991 114.024 94.0708 113.462 94.4361L113.053 93.8074C112.78 93.9851 112.503 94.1614 112.223 94.3361L112.621 94.9721C112.065 95.3193 111.498 95.6604 110.919 95.9953L110.543 95.3461C110.26 95.5102 109.973 95.6728 109.684 95.8339L110.049 96.4892C109.476 96.8078 108.893 97.1205 108.3 97.4271L107.955 96.7607C107.666 96.9104 107.374 97.0585 107.079 97.2052L107.413 97.8767C106.824 98.1699 106.225 98.4572 105.617 98.7384L105.302 98.0576C105.007 98.1939 104.71 98.3286 104.411 98.462L104.717 99.147C104.115 99.4152 103.504 99.6775 102.885 99.9337L102.599 99.2407C102.298 99.3651 101.996 99.488 101.691 99.6096L101.969 100.306C101.357 100.55 100.738 100.789 100.11 101.021L99.8496 100.318C99.5438 100.431 99.2361 100.543 98.9265 100.653L99.1784 101.359C98.558 101.581 97.9304 101.796 97.2958 102.006L97.0606 101.293C96.7503 101.396 96.4382 101.497 96.1244 101.597L96.3514 102.311C95.7236 102.511 95.0892 102.705 94.4485 102.892L94.2375 102.173C93.9234 102.265 93.6077 102.355 93.2905 102.445L93.4936 103.167C92.8594 103.345 92.2192 103.518 91.5732 103.685L91.3855 102.959C91.0682 103.041 90.7495 103.121 90.4294 103.2L90.6096 103.928C89.9698 104.087 89.3246 104.239 88.6741 104.386L88.5089 103.655C88.1891 103.727 87.8679 103.798 87.5455 103.867L87.7034 104.6C87.0588 104.739 86.4093 104.872 85.7549 105L85.6115 104.263C85.2896 104.326 84.9665 104.387 84.6423 104.447L84.7785 105.185C84.1298 105.305 83.4765 105.419 82.8189 105.527L82.6968 104.787C82.3732 104.841 82.0485 104.893 81.7228 104.943L81.838 105.684C81.1857 105.786 80.5293 105.882 79.8689 105.972L79.7675 105.229C79.4427 105.273 79.1168 105.316 78.79 105.357L78.8846 106.101C78.2293 106.185 77.5703 106.262 76.9076 106.335L76.8265 105.589C76.5007 105.624 76.174 105.658 75.8464 105.691L75.9208 106.437C75.263 106.503 74.6018 106.563 73.9372 106.617L73.8761 105.87C73.5496 105.897 73.2224 105.922 72.8943 105.946L72.9489 106.694C72.2891 106.742 71.6261 106.785 70.9601 106.822L70.9185 106.073C70.5917 106.091 70.2642 106.108 69.9359 106.123L69.9711 106.872C69.3103 106.903 68.6466 106.929 67.9803 106.948L67.9581 106.199C67.6305 106.209 67.3022 106.217 66.9733 106.224L66.9892 106.974C66.3285 106.988 65.6653 106.996 64.9997 106.999L64.9965 106.249C64.8311 106.25 64.6656 106.25 64.5 106.25C64.3344 106.25 64.1689 106.25 64.0035 106.249L64.0004 106.999C63.3347 106.996 62.6715 106.988 62.0108 106.974L62.0267 106.224C61.6978 106.217 61.3696 106.209 61.042 106.199L61.0197 106.948C60.3534 106.929 59.6898 106.903 59.029 106.872L59.0641 106.123C58.7358 106.108 58.4083 106.091 58.0815 106.073L58.0399 106.822C57.3739 106.785 56.7109 106.742 56.0511 106.694L56.1057 105.946C55.7777 105.922 55.4504 105.897 55.124 105.87L55.0628 106.617C54.3982 106.563 53.737 106.503 53.0792 106.437L53.1536 105.691C52.826 105.658 52.4993 105.624 52.1735 105.589L52.0925 106.335C51.4297 106.262 50.7707 106.185 50.1154 106.101L50.21 105.357C49.8832 105.316 49.5573 105.273 49.2325 105.229L49.1311 105.972C48.4707 105.882 47.8143 105.786 47.162 105.684L47.2772 104.943C46.9515 104.893 46.6268 104.841 46.3032 104.787L46.1811 105.527C45.5235 105.419 44.8702 105.305 44.2215 105.185L44.3577 104.447C44.0335 104.387 43.7104 104.326 43.3885 104.263L43.2451 105C42.5908 104.872 41.9412 104.739 41.2966 104.6L41.4545 103.867C41.1321 103.798 40.8109 103.727 40.4911 103.655L40.3259 104.386C39.6754 104.239 39.0302 104.087 38.3905 103.928L38.5706 103.2C38.2505 103.121 37.9318 103.041 37.6145 102.959L37.4268 103.685C36.7808 103.518 36.1406 103.345 35.5064 103.167L35.7095 102.445C35.3923 102.355 35.0766 102.265 34.7625 102.173L34.5515 102.892C33.9108 102.705 33.2764 102.511 32.6486 102.311L32.8756 101.597C32.5618 101.497 32.2497 101.396 31.9394 101.293L31.7042 102.006C31.0696 101.796 30.442 101.581 29.8216 101.359L30.0735 100.653C29.7639 100.543 29.4562 100.431 29.1504 100.318L28.8899 101.021C28.2625 100.789 27.6428 100.55 27.031 100.306L27.3089 99.6096C27.0044 99.4881 26.7019 99.3651 26.4015 99.2407L26.1146 99.9337C25.4956 99.6775 24.8851 99.4152 24.2835 99.147L24.5888 98.462C24.2896 98.3286 23.9927 98.1939 23.698 98.0576L23.3833 98.7384C22.775 98.4572 22.1762 98.1699 21.587 97.8767L21.9212 97.2052C21.6265 97.0585 21.3343 96.9104 21.0446 96.7607L20.7004 97.4271C20.1069 97.1205 19.5239 96.8078 18.9515 96.4892L19.3162 95.8339C19.0268 95.6728 18.7403 95.5102 18.4565 95.3461L18.081 95.9953C17.5021 95.6604 16.9346 95.3193 16.3791 94.9721L16.7765 94.3361C16.4969 94.1614 16.2204 93.9851 15.947 93.8074L15.5382 94.4361C14.9763 94.0708 14.4273 93.6991 13.8916 93.3212L14.3239 92.7083C14.0565 92.5198 13.7926 92.3297 13.5322 92.1382L13.0878 92.7423C12.5469 92.3445 12.0205 91.9402 11.509 91.5297L11.9784 90.9448C11.7232 90.74 11.4719 90.5337 11.2245 90.3259L10.7422 90.9002C10.229 90.4692 9.73199 90.0317 9.25167 89.5879L9.76064 89.037C9.5188 88.8136 9.28137 88.5886 9.04841 88.3622L8.52565 88.9C8.04439 88.4322 7.58142 87.9577 7.13727 87.477L7.68814 86.9681C7.46764 86.7294 7.25199 86.4893 7.04124 86.2477L6.4761 86.7408C6.03466 86.2348 5.61384 85.7222 5.21426 85.2033L5.80848 84.7457C5.60931 84.4871 5.41566 84.227 5.22758 83.9655L4.61869 84.4034C4.22715 83.8589 3.85874 83.3079 3.51416 82.7507L4.15205 82.3562C3.98205 82.0813 3.81811 81.8051 3.66031 81.5274L3.00828 81.898C2.67748 81.3161 2.37246 80.7277 2.09399 80.1333L2.77314 79.8151C2.63595 79.5223 2.50548 79.2281 2.38181 78.9327L1.68998 79.2223C1.4323 78.6067 1.20292 77.985 1.00265 77.3577L1.71713 77.1296C1.6197 76.8244 1.52945 76.518 1.44646 76.2104L0.722356 76.4058C0.549201 75.764 0.406399 75.1167 0.294795 74.4643L1.03406 74.3378C0.980199 74.023 0.93389 73.707 0.895223 73.3899L0.150738 73.4807C0.0707539 72.8247 0.0222512 72.164 0.00606615 71.4989L0.755844 71.4806C0.751952 71.3207 0.75 71.1605 0.75 71C0.75 70.8395 0.751952 70.6793 0.755844 70.5194L0.00606555 70.5012C0.0222498 69.836 0.0707517 69.1753 0.150735 68.5193L0.89522 68.6101C0.933887 68.293 0.980195 67.977 1.03405 67.6622L0.294791 67.5357C0.406395 66.8833 0.549196 66.236 0.722351 65.5942L1.44646 65.7896C1.52945 65.482 1.6197 65.1756 1.71712 64.8704L1.00265 64.6423C1.20292 64.015 1.43229 63.3934 1.68997 62.7778L2.38181 63.0674C2.50547 62.7719 2.63594 62.4778 2.77314 62.1849L2.09398 61.8667C2.37246 61.2723 2.67747 60.684 3.00827 60.102L3.6603 60.4726C3.8181 60.195 3.98204 59.9187 4.15204 59.6438L3.51416 59.2493C3.85874 58.6921 4.22714 58.1411 4.61869 57.5966L5.22757 58.0345C5.41565 57.773 5.60931 57.5129 5.80848 57.2543L5.21425 56.7967C5.61384 56.2778 6.03466 55.7652 6.47609 55.2592L7.04124 55.7523C7.25198 55.5107 7.46763 55.2706 7.68813 55.0319L7.13726 54.523C7.58141 54.0423 8.04438 53.5679 8.52564 53.1L9.0484 53.6378C9.28137 53.4114 9.51879 53.1864 9.76063 52.963L9.25166 52.4121C9.73198 51.9683 10.229 51.5308 10.7422 51.0998L11.2245 51.6741C11.4719 51.4663 11.7232 51.26 11.9784 51.0552L11.509 50.4703C12.0205 50.0598 12.5469 49.6555 13.0878 49.2577L13.5322 49.8618C13.7926 49.6703 14.0565 49.4802 14.3239 49.2917L13.8916 48.6788C14.4273 48.3009 14.9763 47.9292 15.5382 47.5639L15.947 48.1926C16.2204 48.0149 16.4969 47.8386 16.7765 47.6639L16.3791 47.0279C16.9346 46.6807 17.5021 46.3396 18.081 46.0047L18.4565 46.6539C18.7403 46.4898 19.0268 46.3272 19.3162 46.1661L18.9514 45.5108C19.5239 45.1922 20.1069 44.8795 20.7004 44.5729L21.0446 45.2393C21.3343 45.0896 21.6265 44.9415 21.9212 44.7948L21.587 44.1233C22.1762 43.8301 22.775 43.5428 23.3833 43.2616L23.698 43.9424C23.9927 43.8061 24.2896 43.6714 24.5888 43.538L24.2835 42.853C24.8851 42.5848 25.4956 42.3225 26.1146 42.0663L26.4015 42.7593C26.7019 42.6349 27.0044 42.512 27.3089 42.3904L27.031 41.6939C27.6428 41.4498 28.2625 41.2115 28.8899 40.9792L29.1504 41.6825C29.4562 41.5693 29.7639 41.4574 30.0735 41.347L29.8216 40.6406C30.442 40.4194 31.0696 40.2039 31.7042 39.9944L31.9394 40.7066C32.2497 40.6041 32.5618 40.503 32.8756 40.4034L32.6486 39.6885C33.2764 39.4892 33.9108 39.2955 34.5515 39.1077L34.7625 39.8274C35.0766 39.7353 35.3923 39.6446 35.7095 39.5554L35.5064 38.8334C36.1406 38.655 36.7808 38.4822 37.4268 38.3152L37.6145 39.0414C37.9318 38.9594 38.2505 38.8788 38.5706 38.7996L38.3905 38.0715C39.0302 37.9133 39.6754 37.7607 40.3259 37.6138L40.4911 38.3454C40.8109 38.2732 41.1321 38.2024 41.4545 38.1329L41.2966 37.3997C41.9412 37.261 42.5907 37.1279 43.2451 37.0004L43.3885 37.7366C43.7104 37.6739 44.0335 37.6126 44.3577 37.5527L44.2215 36.8152C44.8702 36.6954 45.5235 36.5812 46.1811 36.4726L46.3032 37.2126C46.6268 37.1592 46.9515 37.1072 47.2772 37.0566L47.162 36.3155C47.8143 36.2142 48.4707 36.1184 49.1311 36.0283L49.2325 36.7714C49.5573 36.7271 49.8832 36.6841 50.21 36.6426L50.1154 35.8986C50.7707 35.8153 51.4297 35.7375 52.0924 35.6655L52.1735 36.4111C52.4993 36.3756 52.826 36.3416 53.1536 36.3089L53.0792 35.5626C53.737 35.497 54.3982 35.437 55.0628 35.3826L55.1239 36.1301C55.4504 36.1034 55.7776 36.078 56.1057 36.0541L56.0511 35.3061C56.7109 35.2579 57.3739 35.2153 58.0399 35.1783L58.0814 35.9272C58.4083 35.909 58.7358 35.8923 59.0641 35.8769L59.0289 35.1277C59.6897 35.0967 60.3534 35.0713 61.0197 35.0515L61.0419 35.8012C61.3695 35.7915 61.6978 35.7831 62.0267 35.7761L62.0108 35.0263C62.6715 35.0123 63.3347 35.0039 64.0003 35.0011L64.0035 35.7511C64.1689 35.7504 64.3344 35.75 64.5 35.75C64.6656 35.75 64.8311 35.7504 64.9965 35.7511L64.9996 35.0011C65.6653 35.0039 66.3285 35.0123 66.9892 35.0263L66.9733 35.7761C67.3022 35.7831 67.6304 35.7915 67.958 35.8012L67.9803 35.0515C68.6466 35.0713 69.3102 35.0967 69.971 35.1277L69.9359 35.8769C70.2642 35.8922 70.5917 35.909 70.9185 35.9272L70.9601 35.1783C71.6261 35.2153 72.2891 35.2579 72.9489 35.3061L72.8943 36.0541C73.2223 36.078 73.5496 36.1034 73.876 36.1301L73.9372 35.3826C74.6018 35.437 75.263 35.497 75.9208 35.5626L75.8464 36.3089C76.174 36.3416 76.5006 36.3756 76.8264 36.4111L76.9075 35.6655C77.5702 35.7375 78.2293 35.8153 78.8846 35.8986L78.79 36.6426C79.1168 36.6841 79.4426 36.7271 79.7675 36.7714L79.8689 36.0283C80.5293 36.1184 81.1857 36.2142 81.838 36.3155L81.7228 37.0566C82.0485 37.1072 82.3732 37.1592 82.6968 37.2126L82.8189 36.4726C83.4765 36.5812 84.1298 36.6954 84.7785 36.8152L84.6423 37.5527C84.9665 37.6126 85.2896 37.6739 85.6115 37.7366L85.7549 37.0004C86.4092 37.1278 87.0588 37.261 87.7033 37.3997L87.5455 38.1329C87.8679 38.2023 88.189 38.2732 88.5089 38.3454L88.6741 37.6138C89.3246 37.7607 89.9698 37.9133 90.6095 38.0715L90.4294 38.7996C90.7495 38.8788 91.0682 38.9594 91.3855 39.0414L91.5732 38.3152C92.2191 38.4822 92.8594 38.655 93.4936 38.8334L93.2904 39.5554C93.6077 39.6446 93.9234 39.7353 94.2375 39.8274L94.4485 39.1077C95.0892 39.2955 95.7236 39.4892 96.3514 39.6885L96.1244 40.4033C96.4382 40.503 96.7502 40.6041 97.0606 40.7065L97.2958 39.9944C97.9304 40.2039 98.558 40.4194 99.1784 40.6406L98.9265 41.347C99.2361 41.4574 99.5438 41.5692 99.8496 41.6825L100.11 40.9791C100.737 41.2115 101.357 41.4497 101.969 41.6938L101.691 42.3904C101.996 42.5119 102.298 42.6349 102.599 42.7593L102.885 42.0663C103.504 42.3225 104.115 42.5848 104.717 42.853L104.411 43.538C104.71 43.6714 105.007 43.8061 105.302 43.9424L105.617 43.2616C106.225 43.5428 106.824 43.8301 107.413 44.1233L107.079 44.7947C107.373 44.9414 107.666 45.0896 107.955 45.2393L108.3 44.5729C108.893 44.8795 109.476 45.1921 110.049 45.5108L109.684 46.1661C109.973 46.3272 110.26 46.4898 110.543 46.6539L110.919 46.0047C111.498 46.3396 112.065 46.6807 112.621 47.0279L112.223 47.6639C112.503 47.8386 112.78 48.0149 113.053 48.1926L113.462 47.5638C114.024 47.9292 114.573 48.3009 115.108 48.6788L114.676 49.2917C114.943 49.4802 115.207 49.6703 115.468 49.8618L115.912 49.2576C116.453 49.6555 116.979 50.0598 117.491 50.4703L117.022 51.0552C117.277 51.26 117.528 51.4663 117.775 51.6741L118.258 51.0998C118.771 51.5308 119.268 51.9683 119.748 52.4121L119.239 52.963C119.481 53.1864 119.719 53.4114 119.952 53.6378L120.474 53.1C120.956 53.5678 121.419 54.0423 121.863 54.523L121.312 55.0319C121.532 55.2706 121.748 55.5107 121.959 55.7523L122.524 55.2592C122.965 55.7652 123.386 56.2778 123.786 56.7967L123.192 57.2543C123.391 57.5129 123.584 57.773 123.772 58.0345L124.381 57.5966C124.773 58.1411 125.141 58.6921 125.486 59.2493L124.848 59.6438C125.018 59.9187 125.182 60.1949 125.34 60.4726L125.992 60.102C126.323 60.6839 126.628 61.2723 126.906 61.8667L126.227 62.1849C126.364 62.4777 126.495 62.7719 126.618 63.0673L127.31 62.7777C127.568 63.3933 127.797 64.015 127.997 64.6423L127.283 64.8704C127.38 65.1756 127.471 65.482 127.554 65.7896L128.278 65.5942C128.451 66.236 128.594 66.8833 128.705 67.5357L127.966 67.6622C128.02 67.977 128.066 68.293 128.105 68.6101L128.849 68.5193Z" stroke="#CCF2DB" stroke-width="1.5" stroke-dasharray="1 2"/>
<path opacity="0.5" d="M128.849 90.5193C128.929 91.1753 128.978 91.836 128.994 92.5011L128.244 92.5194C128.248 92.6793 128.25 92.8395 128.25 93C128.25 93.1605 128.248 93.3207 128.244 93.4806L128.994 93.4988C128.978 94.164 128.929 94.8247 128.849 95.4807L128.105 95.3899C128.066 95.707 128.02 96.023 127.966 96.3378L128.705 96.4643C128.594 97.1167 128.451 97.764 128.278 98.4058L127.554 98.2104C127.471 98.518 127.38 98.8244 127.283 99.1296L127.997 99.3577C127.797 99.985 127.568 100.607 127.31 101.222L126.618 100.933C126.495 101.228 126.364 101.522 126.227 101.815L126.906 102.133C126.628 102.728 126.323 103.316 125.992 103.898L125.34 103.527C125.182 103.805 125.018 104.081 124.848 104.356L125.486 104.751C125.141 105.308 124.773 105.859 124.381 106.403L123.772 105.965C123.584 106.227 123.391 106.487 123.192 106.746L123.786 107.203C123.386 107.722 122.965 108.235 122.524 108.741L121.959 108.248C121.748 108.489 121.532 108.729 121.312 108.968L121.863 109.477C121.419 109.958 120.956 110.432 120.474 110.9L119.952 110.362C119.719 110.589 119.481 110.814 119.239 111.037L119.748 111.588C119.268 112.032 118.771 112.469 118.258 112.9L117.775 112.326C117.528 112.534 117.277 112.74 117.022 112.945L117.491 113.53C116.98 113.94 116.453 114.345 115.912 114.742L115.468 114.138C115.207 114.33 114.943 114.52 114.676 114.708L115.108 115.321C114.573 115.699 114.024 116.071 113.462 116.436L113.053 115.807C112.78 115.985 112.503 116.161 112.223 116.336L112.621 116.972C112.065 117.319 111.498 117.66 110.919 117.995L110.543 117.346C110.26 117.51 109.973 117.673 109.684 117.834L110.049 118.489C109.476 118.808 108.893 119.121 108.3 119.427L107.955 118.761C107.666 118.91 107.374 119.059 107.079 119.205L107.413 119.877C106.824 120.17 106.225 120.457 105.617 120.738L105.302 120.058C105.007 120.194 104.71 120.329 104.411 120.462L104.717 121.147C104.115 121.415 103.504 121.677 102.885 121.934L102.599 121.241C102.298 121.365 101.996 121.488 101.691 121.61L101.969 122.306C101.357 122.55 100.738 122.789 100.11 123.021L99.8496 122.318C99.5438 122.431 99.2361 122.543 98.9265 122.653L99.1784 123.359C98.558 123.581 97.9304 123.796 97.2958 124.006L97.0606 123.293C96.7503 123.396 96.4382 123.497 96.1244 123.597L96.3514 124.311C95.7236 124.511 95.0892 124.705 94.4485 124.892L94.2375 124.173C93.9234 124.265 93.6077 124.355 93.2905 124.445L93.4936 125.167C92.8594 125.345 92.2192 125.518 91.5732 125.685L91.3855 124.959C91.0682 125.041 90.7495 125.121 90.4294 125.2L90.6096 125.928C89.9698 126.087 89.3246 126.239 88.6741 126.386L88.5089 125.655C88.1891 125.727 87.8679 125.798 87.5455 125.867L87.7034 126.6C87.0588 126.739 86.4093 126.872 85.7549 127L85.6115 126.263C85.2896 126.326 84.9665 126.387 84.6423 126.447L84.7785 127.185C84.1298 127.305 83.4765 127.419 82.8189 127.527L82.6968 126.787C82.3732 126.841 82.0485 126.893 81.7228 126.943L81.838 127.684C81.1857 127.786 80.5293 127.882 79.8689 127.972L79.7675 127.229C79.4427 127.273 79.1168 127.316 78.79 127.357L78.8846 128.101C78.2293 128.185 77.5703 128.262 76.9076 128.335L76.8265 127.589C76.5007 127.624 76.174 127.658 75.8464 127.691L75.9208 128.437C75.263 128.503 74.6018 128.563 73.9372 128.617L73.8761 127.87C73.5496 127.897 73.2224 127.922 72.8943 127.946L72.9489 128.694C72.2891 128.742 71.6261 128.785 70.9601 128.822L70.9185 128.073C70.5917 128.091 70.2642 128.108 69.9359 128.123L69.9711 128.872C69.3103 128.903 68.6466 128.929 67.9803 128.948L67.9581 128.199C67.6305 128.209 67.3022 128.217 66.9733 128.224L66.9892 128.974C66.3285 128.988 65.6653 128.996 64.9997 128.999L64.9965 128.249C64.8311 128.25 64.6656 128.25 64.5 128.25C64.3344 128.25 64.1689 128.25 64.0035 128.249L64.0004 128.999C63.3347 128.996 62.6715 128.988 62.0108 128.974L62.0267 128.224C61.6978 128.217 61.3696 128.209 61.042 128.199L61.0197 128.948C60.3534 128.929 59.6898 128.903 59.029 128.872L59.0641 128.123C58.7358 128.108 58.4083 128.091 58.0815 128.073L58.0399 128.822C57.3739 128.785 56.7109 128.742 56.0511 128.694L56.1057 127.946C55.7777 127.922 55.4504 127.897 55.124 127.87L55.0628 128.617C54.3982 128.563 53.737 128.503 53.0792 128.437L53.1536 127.691C52.826 127.658 52.4993 127.624 52.1735 127.589L52.0925 128.335C51.4297 128.262 50.7707 128.185 50.1154 128.101L50.21 127.357C49.8832 127.316 49.5573 127.273 49.2325 127.229L49.1311 127.972C48.4707 127.882 47.8143 127.786 47.162 127.684L47.2772 126.943C46.9515 126.893 46.6268 126.841 46.3032 126.787L46.1811 127.527C45.5235 127.419 44.8702 127.305 44.2215 127.185L44.3577 126.447C44.0335 126.387 43.7104 126.326 43.3885 126.263L43.2451 127C42.5908 126.872 41.9412 126.739 41.2966 126.6L41.4545 125.867C41.1321 125.798 40.8109 125.727 40.4911 125.655L40.3259 126.386C39.6754 126.239 39.0302 126.087 38.3905 125.928L38.5706 125.2C38.2505 125.121 37.9318 125.041 37.6145 124.959L37.4268 125.685C36.7808 125.518 36.1406 125.345 35.5064 125.167L35.7095 124.445C35.3923 124.355 35.0766 124.265 34.7625 124.173L34.5515 124.892C33.9108 124.705 33.2764 124.511 32.6486 124.311L32.8756 123.597C32.5618 123.497 32.2497 123.396 31.9394 123.293L31.7042 124.006C31.0696 123.796 30.442 123.581 29.8216 123.359L30.0735 122.653C29.7639 122.543 29.4562 122.431 29.1504 122.318L28.8899 123.021C28.2625 122.789 27.6428 122.55 27.031 122.306L27.3089 121.61C27.0044 121.488 26.7019 121.365 26.4015 121.241L26.1146 121.934C25.4956 121.677 24.8851 121.415 24.2835 121.147L24.5888 120.462C24.2896 120.329 23.9927 120.194 23.698 120.058L23.3833 120.738C22.775 120.457 22.1762 120.17 21.587 119.877L21.9212 119.205C21.6265 119.059 21.3343 118.91 21.0446 118.761L20.7004 119.427C20.1069 119.121 19.5239 118.808 18.9515 118.489L19.3162 117.834C19.0268 117.673 18.7403 117.51 18.4565 117.346L18.081 117.995C17.5021 117.66 16.9346 117.319 16.3791 116.972L16.7765 116.336C16.4969 116.161 16.2204 115.985 15.947 115.807L15.5382 116.436C14.9763 116.071 14.4273 115.699 13.8916 115.321L14.3239 114.708C14.0565 114.52 13.7926 114.33 13.5322 114.138L13.0878 114.742C12.5469 114.345 12.0205 113.94 11.509 113.53L11.9784 112.945C11.7232 112.74 11.4719 112.534 11.2245 112.326L10.7422 112.9C10.229 112.469 9.73199 112.032 9.25167 111.588L9.76064 111.037C9.5188 110.814 9.28137 110.589 9.04841 110.362L8.52565 110.9C8.04439 110.432 7.58142 109.958 7.13727 109.477L7.68814 108.968C7.46764 108.729 7.25199 108.489 7.04124 108.248L6.4761 108.741C6.03466 108.235 5.61384 107.722 5.21426 107.203L5.80848 106.746C5.60931 106.487 5.41566 106.227 5.22758 105.965L4.61869 106.403C4.22715 105.859 3.85874 105.308 3.51416 104.751L4.15205 104.356C3.98205 104.081 3.81811 103.805 3.66031 103.527L3.00828 103.898C2.67748 103.316 2.37246 102.728 2.09399 102.133L2.77314 101.815C2.63595 101.522 2.50548 101.228 2.38181 100.933L1.68998 101.222C1.4323 100.607 1.20292 99.985 1.00265 99.3577L1.71713 99.1296C1.6197 98.8244 1.52945 98.518 1.44646 98.2104L0.722356 98.4058C0.549201 97.764 0.406399 97.1167 0.294795 96.4643L1.03406 96.3378C0.980199 96.023 0.93389 95.707 0.895223 95.3899L0.150738 95.4807C0.0707539 94.8247 0.0222512 94.164 0.00606615 93.4989L0.755844 93.4806C0.751952 93.3207 0.75 93.1605 0.75 93C0.75 92.8395 0.751952 92.6793 0.755844 92.5194L0.00606555 92.5012C0.0222498 91.836 0.0707517 91.1753 0.150735 90.5193L0.89522 90.6101C0.933887 90.293 0.980195 89.977 1.03405 89.6622L0.294791 89.5357C0.406395 88.8833 0.549196 88.236 0.722351 87.5942L1.44646 87.7896C1.52945 87.482 1.6197 87.1756 1.71712 86.8704L1.00265 86.6423C1.20292 86.015 1.43229 85.3934 1.68997 84.7778L2.38181 85.0674C2.50547 84.7719 2.63594 84.4778 2.77314 84.1849L2.09398 83.8667C2.37246 83.2723 2.67747 82.684 3.00827 82.102L3.6603 82.4726C3.8181 82.195 3.98204 81.9187 4.15204 81.6438L3.51416 81.2493C3.85874 80.6921 4.22714 80.1411 4.61869 79.5966L5.22757 80.0345C5.41565 79.773 5.60931 79.5129 5.80848 79.2543L5.21425 78.7967C5.61384 78.2778 6.03466 77.7652 6.47609 77.2592L7.04124 77.7523C7.25198 77.5107 7.46763 77.2706 7.68813 77.0319L7.13726 76.523C7.58141 76.0423 8.04438 75.5679 8.52564 75.1L9.0484 75.6378C9.28137 75.4114 9.51879 75.1864 9.76063 74.963L9.25166 74.4121C9.73198 73.9683 10.229 73.5308 10.7422 73.0998L11.2245 73.6741C11.4719 73.4663 11.7232 73.26 11.9784 73.0552L11.509 72.4703C12.0205 72.0598 12.5469 71.6555 13.0878 71.2577L13.5322 71.8618C13.7926 71.6703 14.0565 71.4802 14.3239 71.2917L13.8916 70.6788C14.4273 70.3009 14.9763 69.9292 15.5382 69.5639L15.947 70.1926C16.2204 70.0149 16.4969 69.8386 16.7765 69.6639L16.3791 69.0279C16.9346 68.6807 17.5021 68.3396 18.081 68.0047L18.4565 68.6539C18.7403 68.4898 19.0268 68.3272 19.3162 68.1661L18.9514 67.5108C19.5239 67.1922 20.1069 66.8795 20.7004 66.5729L21.0446 67.2393C21.3343 67.0896 21.6265 66.9415 21.9212 66.7948L21.587 66.1233C22.1762 65.8301 22.775 65.5428 23.3833 65.2616L23.698 65.9424C23.9927 65.8061 24.2896 65.6714 24.5888 65.538L24.2835 64.853C24.8851 64.5848 25.4956 64.3225 26.1146 64.0663L26.4015 64.7593C26.7019 64.6349 27.0044 64.512 27.3089 64.3904L27.031 63.6939C27.6428 63.4498 28.2625 63.2115 28.8899 62.9792L29.1504 63.6825C29.4562 63.5693 29.7639 63.4574 30.0735 63.347L29.8216 62.6406C30.442 62.4194 31.0696 62.2039 31.7042 61.9944L31.9394 62.7066C32.2497 62.6041 32.5618 62.503 32.8756 62.4034L32.6486 61.6885C33.2764 61.4892 33.9108 61.2955 34.5515 61.1077L34.7625 61.8274C35.0766 61.7353 35.3923 61.6446 35.7095 61.5554L35.5064 60.8334C36.1406 60.655 36.7808 60.4822 37.4268 60.3152L37.6145 61.0414C37.9318 60.9594 38.2505 60.8788 38.5706 60.7996L38.3905 60.0715C39.0302 59.9133 39.6754 59.7607 40.3259 59.6138L40.4911 60.3454C40.8109 60.2732 41.1321 60.2024 41.4545 60.1329L41.2966 59.3997C41.9412 59.261 42.5907 59.1279 43.2451 59.0004L43.3885 59.7366C43.7104 59.6739 44.0335 59.6126 44.3577 59.5527L44.2215 58.8152C44.8702 58.6954 45.5235 58.5812 46.1811 58.4726L46.3032 59.2126C46.6268 59.1592 46.9515 59.1072 47.2772 59.0566L47.162 58.3155C47.8143 58.2142 48.4707 58.1184 49.1311 58.0283L49.2325 58.7714C49.5573 58.7271 49.8832 58.6841 50.21 58.6426L50.1154 57.8986C50.7707 57.8153 51.4297 57.7375 52.0924 57.6655L52.1735 58.4111C52.4993 58.3756 52.826 58.3416 53.1536 58.3089L53.0792 57.5626C53.737 57.497 54.3982 57.437 55.0628 57.3826L55.1239 58.1301C55.4504 58.1034 55.7776 58.078 56.1057 58.0541L56.0511 57.3061C56.7109 57.2579 57.3739 57.2153 58.0399 57.1783L58.0814 57.9272C58.4083 57.909 58.7358 57.8923 59.0641 57.8769L59.0289 57.1277C59.6897 57.0967 60.3534 57.0713 61.0197 57.0515L61.0419 57.8012C61.3695 57.7915 61.6978 57.7831 62.0267 57.7761L62.0108 57.0263C62.6715 57.0123 63.3347 57.0039 64.0003 57.0011L64.0035 57.7511C64.1689 57.7504 64.3344 57.75 64.5 57.75C64.6656 57.75 64.8311 57.7504 64.9965 57.7511L64.9996 57.0011C65.6653 57.0039 66.3285 57.0123 66.9892 57.0263L66.9733 57.7761C67.3022 57.7831 67.6304 57.7915 67.958 57.8012L67.9803 57.0515C68.6466 57.0713 69.3102 57.0967 69.971 57.1277L69.9359 57.8769C70.2642 57.8922 70.5917 57.909 70.9185 57.9272L70.9601 57.1783C71.6261 57.2153 72.2891 57.2579 72.9489 57.3061L72.8943 58.0541C73.2223 58.078 73.5496 58.1034 73.876 58.1301L73.9372 57.3826C74.6018 57.437 75.263 57.497 75.9208 57.5626L75.8464 58.3089C76.174 58.3416 76.5006 58.3756 76.8264 58.4111L76.9075 57.6655C77.5702 57.7375 78.2293 57.8153 78.8846 57.8986L78.79 58.6426C79.1168 58.6841 79.4426 58.7271 79.7675 58.7714L79.8689 58.0283C80.5293 58.1184 81.1857 58.2142 81.838 58.3155L81.7228 59.0566C82.0485 59.1072 82.3732 59.1592 82.6968 59.2126L82.8189 58.4726C83.4765 58.5812 84.1298 58.6954 84.7785 58.8152L84.6423 59.5527C84.9665 59.6126 85.2896 59.6739 85.6115 59.7366L85.7549 59.0004C86.4092 59.1278 87.0588 59.261 87.7033 59.3997L87.5455 60.1329C87.8679 60.2023 88.189 60.2732 88.5089 60.3454L88.6741 59.6138C89.3246 59.7607 89.9698 59.9133 90.6095 60.0715L90.4294 60.7996C90.7495 60.8788 91.0682 60.9594 91.3855 61.0414L91.5732 60.3152C92.2191 60.4822 92.8594 60.655 93.4936 60.8334L93.2904 61.5554C93.6077 61.6446 93.9234 61.7353 94.2375 61.8274L94.4485 61.1077C95.0892 61.2955 95.7236 61.4892 96.3514 61.6885L96.1244 62.4033C96.4382 62.503 96.7502 62.6041 97.0606 62.7065L97.2958 61.9944C97.9304 62.2039 98.558 62.4194 99.1784 62.6406L98.9265 63.347C99.2361 63.4574 99.5438 63.5692 99.8496 63.6825L100.11 62.9791C100.737 63.2115 101.357 63.4497 101.969 63.6938L101.691 64.3904C101.996 64.5119 102.298 64.6349 102.599 64.7593L102.885 64.0663C103.504 64.3225 104.115 64.5848 104.717 64.853L104.411 65.538C104.71 65.6714 105.007 65.8061 105.302 65.9424L105.617 65.2616C106.225 65.5428 106.824 65.8301 107.413 66.1233L107.079 66.7947C107.373 66.9414 107.666 67.0896 107.955 67.2393L108.3 66.5729C108.893 66.8795 109.476 67.1921 110.049 67.5108L109.684 68.1661C109.973 68.3272 110.26 68.4898 110.543 68.6539L110.919 68.0047C111.498 68.3396 112.065 68.6807 112.621 69.0279L112.223 69.6639C112.503 69.8386 112.78 70.0149 113.053 70.1926L113.462 69.5638C114.024 69.9292 114.573 70.3009 115.108 70.6788L114.676 71.2917C114.943 71.4802 115.207 71.6703 115.468 71.8618L115.912 71.2576C116.453 71.6555 116.979 72.0598 117.491 72.4703L117.022 73.0552C117.277 73.26 117.528 73.4663 117.775 73.6741L118.258 73.0998C118.771 73.5308 119.268 73.9683 119.748 74.4121L119.239 74.963C119.481 75.1864 119.719 75.4114 119.952 75.6378L120.474 75.1C120.956 75.5678 121.419 76.0423 121.863 76.523L121.312 77.0319C121.532 77.2706 121.748 77.5107 121.959 77.7523L122.524 77.2592C122.965 77.7652 123.386 78.2778 123.786 78.7967L123.192 79.2543C123.391 79.5129 123.584 79.773 123.772 80.0345L124.381 79.5966C124.773 80.1411 125.141 80.6921 125.486 81.2493L124.848 81.6438C125.018 81.9187 125.182 82.1949 125.34 82.4726L125.992 82.102C126.323 82.6839 126.628 83.2723 126.906 83.8667L126.227 84.1849C126.364 84.4777 126.495 84.7719 126.618 85.0673L127.31 84.7777C127.568 85.3933 127.797 86.015 127.997 86.6423L127.283 86.8704C127.38 87.1756 127.471 87.482 127.554 87.7896L128.278 87.5942C128.451 88.236 128.594 88.8833 128.705 89.5357L127.966 89.6622C128.02 89.977 128.066 90.293 128.105 90.6101L128.849 90.5193Z" stroke="#CCF2DB" stroke-width="1.5" stroke-dasharray="1 2"/>
</svg>
